<?xml version="1.0" encoding="UTF-8"?>
<svg xmlns="http://www.w3.org/2000/svg" xmlns:xlink="http://www.w3.org/1999/xlink" width="1267pt" height="562pt" viewBox="0 0 1267 562" version="1.1">
<g id="surface1">
<path style=" stroke:none;fill-rule:nonzero;fill:rgb(0%,0%,0%);fill-opacity:1;" d="M 579.191406 21.484375 C 419.625 43.355469 295.734375 104.359375 256.992188 180.320312 C 243.949219 205.644531 242.417969 244.777344 252.769531 272.398438 C 281.921875 349.519531 407.351562 415.507812 568.066406 438.914062 C 624.449219 447.351562 779.796875 447.351562 835.796875 438.914062 C 995.363281 415.507812 1108.902344 357.574219 1149.179688 279.691406 C 1164.902344 249.765625 1164.519531 214.46875 1148.796875 182.238281 C 1113.890625 110.496094 1006.488281 53.332031 857.28125 26.472656 C 796.675781 15.730469 641.328125 12.664062 579.191406 21.484375 Z M 815.855469 32.613281 C 978.875 53.714844 1103.53125 119.320312 1130.382812 198.355469 C 1138.054688 220.988281 1135.367188 257.4375 1124.246094 279.308594 C 1105.0625 316.90625 1051.367188 358.339844 987.308594 385.199219 C 770.980469 475.742188 422.691406 438.914062 308.394531 313.457031 C 258.140625 258.59375 256.992188 204.878906 304.554688 150.78125 C 354.035156 94.765625 460.671875 49.875 586.859375 32.613281 C 638.644531 25.703125 760.621094 25.703125 815.855469 32.613281 Z M 815.855469 32.613281 "/>
<path style=" stroke:none;fill-rule:nonzero;fill:rgb(0%,0%,0%);fill-opacity:1;" d="M 828.511719 100.136719 C 804.730469 115.867188 779.03125 141.1875 776.34375 151.546875 C 774.042969 160.371094 782.097656 180.320312 792.839844 192.597656 C 795.910156 196.050781 797.828125 204.109375 797.058594 211.398438 C 795.527344 229.050781 780.949219 236.335938 732.617188 243.628906 C 673.550781 252.449219 643.632812 262.425781 592.613281 291.199219 C 575.734375 300.792969 552.34375 310.769531 540.835938 313.066406 C 522.042969 317.289062 521.273438 317.671875 533.550781 318.054688 C 550.421875 318.4375 576.125 310 608.34375 293.117188 C 646.316406 273.164062 683.519531 261.273438 731.851562 253.605469 C 784.019531 245.160156 802.429688 238.640625 811.632812 224.445312 C 817.003906 216.003906 817.386719 212.164062 813.9375 200.273438 C 811.25 192.597656 805.113281 181.089844 799.742188 174.953125 C 794.371094 168.8125 790.15625 159.988281 790.15625 155.765625 C 790.15625 147.324219 821.992188 111.261719 841.9375 96.679688 C 859.199219 84.40625 848.457031 87.089844 828.511719 100.136719 Z M 828.511719 100.136719 "/>
<path style=" stroke:none;fill-rule:nonzero;fill:rgb(0%,0%,0%);fill-opacity:1;" d="M 622.917969 146.941406 C 581.878906 177.25 535.082031 214.085938 504.78125 240.175781 C 463.734375 275.855469 426.53125 291.964844 372.828125 297.722656 C 357.488281 299.257812 347.515625 302.324219 346.363281 305.78125 C 344.058594 311.535156 351.734375 322.277344 357.871094 322.277344 C 360.554688 322.277344 360.554688 320.742188 357.488281 317.671875 C 349.046875 309.234375 352.503906 304.628906 367.457031 304.628906 C 419.242188 303.863281 480.230469 275.472656 536.996094 225.976562 C 559.246094 206.410156 593.382812 178.015625 612.566406 162.289062 C 642.867188 138.121094 656.289062 125.839844 651.304688 126.992188 C 650.535156 126.992188 637.878906 136.199219 622.917969 146.941406 Z M 622.917969 146.941406 "/>
<path style=" stroke:none;fill-rule:nonzero;fill:rgb(0%,0%,0%);fill-opacity:1;" d="M 739.519531 171.496094 C 738.371094 184.160156 736.839844 186.078125 723.03125 190.296875 C 708.070312 195.285156 708.070312 195.285156 721.109375 192.980469 C 742.976562 189.53125 747.582031 185.691406 746.8125 170.730469 C 745.660156 153.085938 741.058594 153.46875 739.519531 171.496094 Z M 739.519531 171.496094 "/>
<path style=" stroke:none;fill-rule:nonzero;fill:rgb(0%,0%,0%);fill-opacity:1;" d="M 697.328125 190.679688 C 700.015625 191.832031 703.464844 191.445312 704.621094 190.296875 C 706.152344 189.148438 703.855469 187.992188 699.632812 188.382812 C 695.414062 188.382812 694.261719 189.53125 697.328125 190.679688 Z M 697.328125 190.679688 "/>
<path style=" stroke:none;fill-rule:nonzero;fill:rgb(0%,0%,0%);fill-opacity:1;" d="M 996.519531 190.679688 C 999.199219 191.832031 1002.65625 191.445312 1003.804688 190.296875 C 1005.335938 189.148438 1003.039062 187.992188 998.816406 188.382812 C 994.597656 188.382812 993.445312 189.53125 996.519531 190.679688 Z M 996.519531 190.679688 "/>
<path style=" stroke:none;fill-rule:nonzero;fill:rgb(0%,0%,0%);fill-opacity:1;" d="M 932.074219 196.433594 C 880.289062 200.65625 855.359375 207.941406 825.441406 227.128906 C 809.335938 237.484375 786.703125 247.078125 758.707031 255.519531 C 735.304688 262.425781 713.441406 270.867188 710.375 273.9375 C 702.699219 281.609375 707.304688 291.582031 718.042969 291.199219 C 724.566406 290.816406 724.949219 290.433594 720.34375 288.902344 C 702.699219 284.296875 721.109375 273.554688 774.042969 257.4375 C 789.390625 252.832031 814.320312 242.472656 830.042969 234.421875 C 858.429688 219.457031 864.183594 217.535156 945.5 201.804688 C 995.363281 191.832031 993.445312 191.0625 932.074219 196.433594 Z M 932.074219 196.433594 "/>
<path style=" stroke:none;fill-rule:nonzero;fill:rgb(0%,0%,0%);fill-opacity:1;" d="M 1045.613281 217.535156 C 1008.410156 225.210938 980.789062 237.484375 931.691406 268.566406 C 872.238281 305.78125 838.105469 317.289062 746.429688 330.335938 C 727.628906 333.015625 713.824219 335.707031 716.511719 336.855469 C 722.265625 338.777344 827.746094 323.042969 854.210938 316.136719 C 875.308594 310.769531 901.390625 298.492188 999.199219 248.226562 C 1022.597656 236.335938 1054.433594 223.296875 1070.164062 219.074219 C 1105.445312 209.863281 1086.652344 208.332031 1045.613281 217.535156 Z M 1045.613281 217.535156 "/>
<path style=" stroke:none;fill-rule:nonzero;fill:rgb(0%,0%,0%);fill-opacity:1;" d="M 838.105469 265.496094 C 831.96875 270.101562 820.074219 279.308594 812.398438 286.210938 C 795.910156 300.792969 766.375 310.769531 705.003906 322.277344 C 660.890625 330.71875 648.230469 334.941406 648.230469 341.84375 C 648.230469 343.765625 652.070312 342.992188 657.058594 339.925781 C 661.660156 336.855469 688.890625 329.570312 717.277344 324.199219 C 800.125 307.695312 828.511719 295.804688 847.691406 268.566406 C 857.28125 255.136719 854.210938 253.988281 838.105469 265.496094 Z M 838.105469 265.496094 "/>
<path style=" stroke:none;fill-rule:nonzero;fill:rgb(0%,0%,0%);fill-opacity:1;" d="M 726.863281 283.914062 C 728.011719 285.828125 732.234375 287.746094 735.691406 287.746094 C 741.445312 287.746094 741.445312 286.980469 736.457031 283.914062 C 728.785156 278.925781 723.796875 278.925781 726.863281 283.914062 Z M 726.863281 283.914062 "/>
<path style=" stroke:none;fill-rule:nonzero;fill:rgb(0%,0%,0%);fill-opacity:1;" d="M 659.738281 299.257812 C 649.386719 305.015625 648.230469 306.546875 653.984375 306.929688 C 658.972656 306.929688 655.90625 309.617188 645.550781 314.605469 C 636.339844 318.4375 629.054688 322.660156 629.054688 324.199219 C 629.054688 325.347656 638.261719 325.730469 649.386719 325.730469 C 667.414062 324.964844 668.179688 324.964844 655.90625 322.660156 C 636.339844 318.828125 649.003906 315.371094 700.015625 311.152344 C 738.753906 307.695312 782.097656 300.792969 785.167969 298.105469 C 785.550781 297.335938 772.894531 296.953125 756.398438 296.953125 C 740.292969 296.953125 714.972656 296.1875 700.015625 294.65625 C 677.382812 292.351562 670.863281 293.117188 659.738281 299.257812 Z M 659.738281 299.257812 "/>
<path style=" stroke:none;fill-rule:nonzero;fill:rgb(0%,0%,0%);fill-opacity:1;" d="M 398.910156 310.769531 C 387.410156 316.90625 374.75 321.894531 371.296875 322.277344 C 367.457031 322.277344 364.394531 323.816406 364.394531 326.113281 C 364.394531 330.71875 377.433594 337.621094 386.253906 337.238281 C 393.164062 336.855469 392.773438 336.472656 376.285156 331.484375 C 373.210938 330.71875 378.964844 325.730469 389.324219 319.976562 C 409.269531 309.617188 416.554688 309.617188 400.832031 319.976562 C 392.773438 325.347656 391.625 327.648438 395.460938 332.25 C 397.761719 335.324219 404.28125 337.621094 410.035156 337.238281 C 419.242188 336.855469 418.476562 336.472656 403.132812 331.484375 C 397.761719 329.570312 403.898438 323.042969 423.074219 309.234375 C 429.984375 304.246094 430.367188 303.863281 424.230469 305.78125 C 419.242188 307.3125 417.710938 306.929688 419.625 303.863281 C 423.074219 297.722656 423.464844 297.722656 398.910156 310.769531 Z M 398.910156 310.769531 "/>
<path style=" stroke:none;fill-rule:nonzero;fill:rgb(0%,0%,0%);fill-opacity:1;" d="M 471.40625 314.605469 C 464.886719 322.660156 456.449219 330.335938 452.996094 331.101562 C 447.625 332.632812 447.625 333.015625 453.378906 333.402344 C 456.832031 333.402344 461.054688 331.867188 462.203125 329.953125 C 463.351562 327.648438 472.171875 326.113281 481.765625 326.113281 C 500.175781 326.113281 513.980469 320.742188 513.980469 314.222656 C 513.980469 311.917969 511.300781 313.066406 507.84375 316.136719 C 504.394531 319.59375 495.953125 322.277344 487.902344 321.894531 C 480.230469 321.894531 476.011719 320.742188 478.699219 319.59375 C 480.996094 318.828125 482.148438 316.136719 480.996094 314.222656 C 479.847656 311.917969 480.996094 308.078125 483.296875 305.015625 C 485.984375 301.941406 487.132812 299.257812 485.984375 299.257812 C 484.835938 299.257812 478.316406 306.164062 471.40625 314.605469 Z M 471.40625 314.605469 "/>
<path style=" stroke:none;fill-rule:nonzero;fill:rgb(0%,0%,0%);fill-opacity:1;" d="M 440.335938 309.234375 C 430.75 314.222656 419.625 328.800781 422.691406 331.867188 C 423.464844 332.632812 429.210938 334.171875 435.347656 335.324219 C 446.089844 337.621094 446.472656 337.621094 437.273438 333.789062 C 429.601562 330.335938 428.828125 328.800781 433.433594 326.113281 C 436.503906 324.199219 437.65625 322.277344 435.347656 322.277344 C 433.433594 322.277344 436.886719 317.671875 443.027344 312.683594 C 456.066406 301.941406 455.300781 300.792969 440.335938 309.234375 Z M 440.335938 309.234375 "/>
<path style=" stroke:none;fill-rule:nonzero;fill:rgb(0%,0%,0%);fill-opacity:1;" d="M 697.328125 340.308594 C 699.632812 341.078125 704.238281 341.078125 706.921875 340.308594 C 709.21875 339.160156 707.304688 338.386719 701.933594 338.386719 C 696.5625 338.386719 694.644531 339.160156 697.328125 340.308594 Z M 697.328125 340.308594 "/>
<path style=" stroke:none;fill-rule:nonzero;fill:rgb(0%,0%,0%);fill-opacity:1;" d="M 324.117188 464.617188 C 317.980469 468.449219 314.53125 471.90625 316.828125 471.90625 C 321.816406 471.90625 345.214844 460.78125 345.214844 458.09375 C 345.214844 454.644531 334.855469 457.710938 324.117188 464.617188 Z M 324.117188 464.617188 "/>
<path style=" stroke:none;fill-rule:nonzero;fill:rgb(0%,0%,0%);fill-opacity:1;" d="M 466.808594 463.078125 C 465.269531 464.234375 464.117188 469.222656 464.117188 473.820312 C 464.117188 481.882812 462.96875 482.265625 449.929688 478.808594 C 439.953125 476.125 431.902344 476.125 424.996094 479.199219 C 414.257812 483.414062 400.832031 504.136719 404.664062 510.273438 C 408.886719 517.179688 430.75 514.113281 447.242188 504.519531 L 463.734375 494.929688 L 464.886719 503.363281 C 465.652344 508.351562 469.105469 512.574219 473.710938 513.722656 C 480.230469 514.878906 480.230469 514.113281 476.011719 509.125 C 472.5625 504.902344 471.789062 496.84375 473.710938 481.882812 C 476.394531 461.929688 473.710938 455.792969 466.808594 463.078125 Z M 454.535156 484.953125 C 461.4375 489.941406 460.289062 490.707031 441.875 500.300781 C 431.132812 505.667969 420.394531 510.273438 418.09375 510.273438 C 411.957031 510.273438 413.488281 500.683594 422.308594 489.558594 C 431.132812 478.425781 443.410156 476.894531 454.535156 484.953125 Z M 454.535156 484.953125 "/>
<path style=" stroke:none;fill-rule:nonzero;fill:rgb(0%,0%,0%);fill-opacity:1;" d="M 845.390625 466.152344 C 836.183594 473.054688 842.703125 473.4375 855.359375 466.152344 C 861.496094 462.695312 862.652344 460.78125 858.8125 460.398438 C 855.742188 460.398438 849.605469 463.078125 845.390625 466.152344 Z M 845.390625 466.152344 "/>
<path style=" stroke:none;fill-rule:nonzero;fill:rgb(0%,0%,0%);fill-opacity:1;" d="M 1014.15625 487.636719 C 1013.390625 516.027344 1016.460938 519.867188 1030.269531 507.203125 C 1043.691406 495.3125 1059.804688 483.414062 1062.871094 483.414062 C 1064.792969 483.414062 1066.324219 490.324219 1066.324219 498.761719 C 1066.324219 508.351562 1068.242188 514.113281 1071.3125 514.113281 C 1074.378906 514.113281 1075.535156 508.734375 1074.761719 496.84375 C 1073.230469 481.882812 1072.078125 479.582031 1064.410156 479.582031 C 1059.804688 479.582031 1050.214844 483.414062 1042.925781 488.402344 C 1035.640625 493.390625 1028.351562 498.375 1026.046875 499.53125 C 1023.75 501.066406 1022.597656 494.929688 1023.367188 483.414062 C 1024.515625 470.757812 1023.367188 464.617188 1019.527344 463.464844 C 1015.695312 461.929688 1014.546875 467.683594 1014.15625 487.636719 Z M 1014.15625 487.636719 "/>
<path style=" stroke:none;fill-rule:nonzero;fill:rgb(0%,0%,0%);fill-opacity:1;" d="M 186.800781 470.757812 C 185.644531 472.671875 199.074219 474.210938 215.949219 474.59375 C 250.472656 475.359375 274.636719 481.496094 264.660156 487.25 C 261.210938 489.175781 247.789062 491.855469 234.746094 493.390625 L 210.582031 496.078125 L 214.796875 485.71875 C 218.253906 476.511719 217.871094 475.359375 212.117188 476.511719 C 208.277344 477.277344 204.445312 481.882812 203.671875 487.25 C 203.289062 492.621094 200.609375 497.992188 197.917969 499.53125 C 194.855469 501.832031 194.855469 502.597656 198.691406 502.597656 C 200.992188 502.597656 203.289062 505.285156 203.289062 508.351562 C 203.289062 511.808594 206.746094 514.113281 212.117188 513.722656 C 216.71875 513.722656 218.253906 512.574219 215.949219 511.421875 C 213.265625 510.65625 210.964844 507.203125 210.964844 504.519531 C 210.964844 501.449219 219.019531 498.761719 235.132812 496.84375 C 248.171875 495.695312 264.277344 492.238281 270.414062 489.558594 C 281.539062 484.953125 281.539062 484.570312 273.871094 480.347656 C 257.757812 471.523438 190.632812 464.234375 186.800781 470.757812 Z M 186.800781 470.757812 "/>
<path style=" stroke:none;fill-rule:nonzero;fill:rgb(0%,0%,0%);fill-opacity:1;" d="M 619.46875 475.742188 C 612.175781 478.808594 612.175781 479.199219 620.617188 479.199219 C 628.289062 479.582031 629.4375 481.113281 628.289062 494.929688 C 627.90625 503.363281 628.671875 511.039062 629.820312 512.574219 C 634.808594 517.179688 639.796875 510.273438 637.878906 502.214844 C 635.957031 494.929688 636.730469 494.160156 646.699219 496.078125 C 652.835938 497.226562 667.414062 501.832031 678.917969 506.054688 C 690.808594 510.65625 708.453125 513.722656 719.195312 513.339844 L 738.371094 512.957031 L 717.277344 510.65625 C 705.769531 509.125 689.660156 505.667969 681.605469 502.597656 L 667.027344 497.226562 L 692.730469 492.238281 C 729.9375 485.335938 731.085938 481.882812 698.101562 475.742188 C 673.933594 471.140625 630.203125 471.140625 619.46875 475.742188 Z M 706.535156 481.882812 C 713.441406 486.484375 695.027344 489.941406 664.726562 490.707031 C 642.476562 491.089844 640.5625 490.324219 640.5625 483.03125 C 640.5625 474.976562 641.710938 474.59375 670.863281 476.894531 C 687.742188 478.042969 703.855469 480.347656 706.535156 481.882812 Z M 706.535156 481.882812 "/>
<path style=" stroke:none;fill-rule:nonzero;fill:rgb(0%,0%,0%);fill-opacity:1;" d="M 304.171875 482.648438 C 293.046875 491.472656 289.210938 507.585938 296.886719 513.722656 C 303.789062 519.484375 335.625 516.410156 339.84375 509.507812 C 341.378906 506.820312 339.460938 506.820312 333.324219 508.734375 C 328.335938 510.273438 319.128906 511.808594 312.609375 512.191406 C 303.789062 512.191406 301.101562 510.65625 301.101562 504.519531 C 301.101562 499.148438 304.171875 496.460938 312.609375 494.929688 C 328.335938 492.238281 339.078125 485.335938 336.007812 479.964844 C 331.785156 473.4375 313.757812 474.976562 304.171875 482.648438 Z M 324.5 485.335938 C 320.285156 488.402344 314.148438 491.089844 311.074219 491.089844 C 306.085938 490.707031 306.472656 489.558594 312.226562 485.335938 C 316.445312 482.265625 322.582031 479.582031 325.648438 479.582031 C 330.636719 479.964844 330.253906 481.113281 324.5 485.335938 Z M 324.5 485.335938 "/>
<path style=" stroke:none;fill-rule:nonzero;fill:rgb(0%,0%,0%);fill-opacity:1;" d="M 517.054688 482.265625 C 503.628906 490.707031 499.410156 506.054688 509 513.339844 C 516.289062 518.710938 540.835938 516.792969 551.960938 509.890625 C 556.558594 506.820312 555.027344 506.820312 546.589844 508.734375 C 524.722656 514.113281 515.902344 512.957031 515.902344 504.519531 C 515.902344 499.148438 519.351562 496.460938 528.179688 494.542969 C 542.75 491.855469 553.109375 484.1875 550.039062 479.199219 C 546.589844 473.820312 528.179688 475.359375 517.054688 482.265625 Z M 535.464844 485.335938 C 525.488281 492.621094 519.351562 492.621094 525.488281 485.335938 C 528.179688 482.265625 533.164062 479.582031 536.613281 479.582031 C 541.601562 479.964844 541.601562 480.730469 535.464844 485.335938 Z M 535.464844 485.335938 "/>
<path style=" stroke:none;fill-rule:nonzero;fill:rgb(0%,0%,0%);fill-opacity:1;" d="M 757.550781 484.570312 C 754.484375 489.175781 751.414062 497.609375 751.027344 502.597656 C 749.878906 511.039062 751.414062 512.191406 762.152344 511.808594 C 768.675781 511.421875 779.796875 507.203125 785.9375 502.597656 L 797.828125 494.542969 L 797.828125 504.136719 C 797.828125 511.808594 799.742188 514.113281 806.644531 514.113281 C 812.78125 514.113281 813.554688 512.957031 810.101562 510.65625 C 805.878906 508.351562 805.878906 504.136719 808.566406 493.773438 C 812.015625 481.496094 811.632812 479.964844 803.964844 478.042969 C 799.742188 476.894531 788.617188 475.742188 779.796875 475.742188 C 767.140625 475.742188 762.152344 477.660156 757.550781 484.570312 Z M 797.828125 482.648438 C 797.828125 489.558594 761.386719 513.339844 757.167969 509.125 C 756.398438 508.351562 758.316406 501.449219 761.386719 493.773438 C 766.757812 480.730469 768.675781 479.582031 782.480469 479.582031 C 790.921875 479.582031 797.828125 481.113281 797.828125 482.648438 Z M 797.828125 482.648438 "/>
<path style=" stroke:none;fill-rule:nonzero;fill:rgb(0%,0%,0%);fill-opacity:1;" d="M 1114.273438 484.570312 C 1111.199219 489.175781 1108.136719 497.609375 1107.753906 502.597656 C 1106.601562 511.039062 1108.136719 512.191406 1118.878906 511.808594 C 1125.398438 511.421875 1136.523438 507.203125 1142.660156 502.597656 L 1154.542969 494.542969 L 1154.542969 504.136719 C 1154.542969 511.808594 1156.464844 514.113281 1163.371094 514.113281 C 1169.507812 514.113281 1170.273438 512.957031 1166.824219 510.65625 C 1162.601562 508.351562 1162.601562 504.136719 1165.285156 493.773438 C 1168.738281 481.496094 1168.355469 479.964844 1160.679688 478.042969 C 1156.464844 476.894531 1145.339844 475.742188 1136.523438 475.742188 C 1123.859375 475.742188 1118.878906 477.660156 1114.273438 484.570312 Z M 1154.542969 482.648438 C 1154.542969 489.558594 1118.109375 513.339844 1113.890625 509.125 C 1113.125 508.351562 1115.039062 501.449219 1118.109375 493.773438 C 1123.476562 480.730469 1125.398438 479.582031 1139.203125 479.582031 C 1147.640625 479.582031 1154.542969 481.113281 1154.542969 482.648438 Z M 1154.542969 482.648438 "/>
<path style=" stroke:none;fill-rule:nonzero;fill:rgb(0%,0%,0%);fill-opacity:1;" d="M 842.703125 493.773438 C 841.167969 501.449219 841.167969 509.125 842.320312 511.039062 C 845.390625 515.644531 859.582031 514.496094 872.621094 507.96875 C 883.746094 502.597656 883.746094 502.597656 873.769531 504.519531 C 868.40625 505.667969 860.730469 507.585938 856.898438 509.125 C 851.144531 511.421875 850.761719 509.890625 853.058594 495.695312 C 854.976562 483.414062 854.210938 479.582031 849.996094 479.582031 C 846.921875 479.582031 843.851562 485.335938 842.703125 493.773438 Z M 842.703125 493.773438 "/>
<path style=" stroke:none;fill-rule:nonzero;fill:rgb(0%,0%,0%);fill-opacity:1;" d="M 933.609375 490.324219 C 907.910156 508.734375 907.910156 508.734375 910.984375 495.3125 C 912.898438 486.101562 912.132812 483.414062 907.527344 483.414062 C 902.921875 483.414062 901.390625 487.25 901.390625 498.761719 C 901.390625 517.179688 905.996094 518.328125 924.789062 504.136719 C 949.335938 485.71875 950.871094 485.71875 955.476562 498.375 C 959.308594 508.734375 961.613281 510.273438 974.269531 510.273438 C 982.324219 510.273438 990.765625 507.585938 993.445312 504.519531 C 999.199219 497.609375 996.128906 497.226562 986.160156 503.363281 C 976.183594 509.507812 966.984375 504.902344 962.378906 491.089844 C 957.390625 476.894531 952.402344 476.511719 933.609375 490.324219 Z M 933.609375 490.324219 "/>
</g>
</svg>
